<?xml version="1.0" encoding="utf-8"?>
<!-- Generator: Adobe Illustrator 18.1.1, SVG Export Plug-In . SVG Version: 6.00 Build 0)  -->
<svg version="1.1" id="Layer_1" xmlns="http://www.w3.org/2000/svg" xmlns:xlink="http://www.w3.org/1999/xlink" x="0px" y="0px"
	 viewBox="0 0 612 612" enable-background="new 0 0 612 612" xml:space="preserve">
<circle fill="#E74C3C" cx="306" cy="306" r="306"/>
<g opacity="0.2">
	<path fill="#231F20" d="M607.9,355.9L379.5,127.5l-83.8,164.2l-76-76L121,280.3c0,0-26,56.5-26.7,55.8l136.8,136.8l-0.8,9.4
		l125.6,125.6C484.9,586.8,586.8,484.9,607.9,355.9z"/>
</g>
<path fill="#FFFFFF" d="M406,401.6c-6.4,0-12.7-3.2-16.3-9.1c-5.5-9-2.7-20.8,6.2-26.3l96.8-59.7c0.1-0.4,0.1-0.7,0-1.1L396,245.8
	c-9-5.5-11.8-17.3-6.2-26.3c5.5-9,17.3-11.8,26.3-6.2l101.6,62.6l1.6,1.6c15.7,15.7,15.7,41.3,0,57.1l-1.6,1.6L416,398.9
	C412.9,400.7,409.5,401.6,406,401.6z"/>
<path fill="#FFFFFF" d="M206,401.6c-3.4,0-6.9-0.9-10-2.8L94.3,336.1l-1.6-1.6c-15.7-15.7-15.7-41.3,0-57l1.6-1.6L196,213.2
	c9-5.6,20.8-2.8,26.3,6.2s2.7,20.8-6.2,26.3l-96.9,59.8c-0.1,0.4-0.1,0.7,0,1.1l96.8,59.6c9,5.5,11.8,17.3,6.2,26.3
	C218.6,398.4,212.4,401.6,206,401.6z"/>
<path fill="#FFFFFF" d="M243.8,487.7c-2.3,0-4.6-0.4-6.8-1.3c-9.9-3.8-14.8-14.8-11-24.7l124.3-325.1c3.8-9.9,14.8-14.8,24.7-11
	c9.9,3.8,14.8,14.8,11,24.7L261.7,475.4C258.8,483,251.5,487.7,243.8,487.7z"/>
</svg>
