<?xml version="1.0" encoding="utf-8"?>
<!-- Generator: Adobe Illustrator 18.1.1, SVG Export Plug-In . SVG Version: 6.00 Build 0)  -->
<svg version="1.1" id="Layer_1" xmlns="http://www.w3.org/2000/svg" xmlns:xlink="http://www.w3.org/1999/xlink" x="0px" y="0px"
	 viewBox="0 0 612 612" enable-background="new 0 0 612 612" xml:space="preserve">
<circle fill="#BF55EC" cx="306" cy="306" r="306"/>
<g opacity="0.2">
	<g>
		<path fill="#231F20" d="M611.4,324.4L460.3,173.3l-41.7,10.3l-87.5-92.5L316,120l-30.2,22.8l37.5,32.5l-14,10.7l26.4,26.4
			l-12.5,12.3L299.8,276l-93-93l-45.2,51.2l36.5,36.5l-14.5,5.5l58.9,58.9L143,424l4.2,58l128.5,128.5c9.9,1,20,1.5,30.2,1.5
			C468.8,612,601.9,484.8,611.4,324.4z"/>
	</g>
</g>
<g>
	<path fill="#4F5D73" d="M323.2,224.7L120.5,428.4c-7.7,7.6-7.7,19.1,0,26.8l26.8,26.8c7.6,7.6,19.1,7.6,26.8,0l202.7-202.7
		L323.2,224.7z"/>
</g>
<path fill="#FFFFFF" d="M458,197.9c7.6-7.6,7.6-19.1,0-26.8l-26.8-26.8c-7.6-7.7-19.1-7.7-26.8,0l-67.9,67.9l54.5,54.5L458,197.9z"
	/>
<g>
	<path fill="#F7C800" d="M196,283.1c-7.6,0-14.3-6.7-14.3-14.3v-76.5c0-7.6,6.7-14.3,14.3-14.3s14.3,6.7,14.3,14.3v76.5
		C210.4,276.4,203.7,283.1,196,283.1z"/>
</g>
<g>
	<path fill="#F7C800" d="M220.9,239.1h-48.8c-7.6,0-14.3-6.7-14.3-14.3s6.7-14.3,14.3-14.3h48.8c7.6,0,14.3,6.7,14.3,14.3
		S228.5,239.1,220.9,239.1z"/>
</g>
<g>
	<path fill="#F7C800" d="M320.3,191.2c-7.6,0-14.3-6.7-14.3-14.3v-76.5c0-7.7,6.7-14.3,14.3-14.3s14.3,6.7,14.3,14.3v76.5
		C334.7,184.6,328,191.2,320.3,191.2z"/>
</g>
<g>
	<path fill="#F7C800" d="M345.2,147.3h-48.8c-7.6,0-14.3-6.7-14.3-14.3s6.7-14.3,14.3-14.3h48.8c7.6,0,14.3,6.7,14.3,14.3
		S352.9,147.3,345.2,147.3z"/>
</g>
<g>
	<path fill="#F7C800" d="M473.3,378.7c-7.6,0-14.3-6.7-14.3-14.3v-76.5c0-7.6,6.7-14.3,14.3-14.3s14.3,6.7,14.3,14.3v76.5
		C487.7,372,481,378.7,473.3,378.7z"/>
</g>
<g>
	<path fill="#F7C800" d="M498.2,334.7h-48.8c-7.6,0-14.3-6.7-14.3-14.3s6.7-14.3,14.3-14.3h48.8c7.6,0,14.3,6.7,14.3,14.3
		S505.9,334.7,498.2,334.7z"/>
</g>
</svg>
