<?xml version="1.0" encoding="utf-8"?>
<!-- Generator: Adobe Illustrator 18.1.1, SVG Export Plug-In . SVG Version: 6.00 Build 0)  -->
<svg version="1.1" id="Layer_1" xmlns="http://www.w3.org/2000/svg" xmlns:xlink="http://www.w3.org/1999/xlink" x="0px" y="0px"
	 viewBox="0 0 612 612" enable-background="new 0 0 612 612" xml:space="preserve">
<circle fill="#009D30" cx="306" cy="306" r="306"/>
<path opacity="0.2" fill="#231F20" enable-background="new    " d="M612,306c0-13.2-0.9-26.2-2.6-39L477.2,134.8L114.8,449.4
	l161.1,161.1c9.9,1,19.9,1.5,30.1,1.5C475,612,612,475,612,306z"/>
<path fill="#C3014B" d="M357.6,423.6c-11.5-11.5-13.4-26.8-5.7-35.4l49.7-49.7c8.6-8.6,23.9-5.7,35.4,5.7l40.2,40.2
	c11.5,11.5,13.4,26.8,5.7,35.4l-49.7,49.7c-8.6,8.6-23.9,5.7-35.4-5.7L357.6,423.6z"/>
<polygon fill="#E09500" points="256.3,163.5 230.5,177.9 222.8,170.2 183.6,210.4 197,223.8 176.9,243.8 364.3,430.3 384.4,410.2 
	423.6,371 443.7,350.9 "/>
<polygon fill="#4F5D73" points="135.8,122.4 149.2,162.6 175.9,136.7 "/>
<polygon fill="#FECB00" points="256.3,163.5 175.9,136.7 149.2,162.6 176.9,243.8 186.5,233.3 210.4,237.1 203.7,190.3 250.5,197 
	246.7,174 "/>
<path fill="#FECB00" d="M286.9,258.2c-65,65-65,94.7-46.9,113.8c18.2,18.2,47.8,19.1,113.8-46.9c65-65,141.5-171.2,123.4-190.3
	C458,116.7,351.9,193.2,286.9,258.2z"/>
<path fill="#C3014B" d="M114.8,449.4c21,21,105.2,27.7,145.4-13.4c3.8-3.8,7.6-9.6,10.5-14.3c-63.1-1.9-96.6-23-113.8-39.2
	C150.1,403.5,143.4,430.3,114.8,449.4z"/>
<path fill="#4F5D73" d="M265.8,346.2c-22.9-23-66-18.2-89.9,4.8c-9.6,9.6-14.3,19.1-18.2,30.6c16.3,16.3,48.8,66,113.8,39.2
	C285,397.8,284,365.3,265.8,346.2z"/>
<path fill="#C3014B" d="M157.8,382.5c0,0,38.2-7.6,56.4,20.1c18.2,26.8,56.4,19.1,56.4,19.1l-48.8,27.7l-49.7-36.3L157.8,382.5z"/>
</svg>
