<?xml version="1.0" encoding="utf-8"?>
<!-- Generator: Adobe Illustrator 18.1.1, SVG Export Plug-In . SVG Version: 6.00 Build 0)  -->
<svg version="1.1" id="Layer_1" xmlns="http://www.w3.org/2000/svg" xmlns:xlink="http://www.w3.org/1999/xlink" x="0px" y="0px"
	 viewBox="0 0 612 612" enable-background="new 0 0 612 612" xml:space="preserve">
<g>
	<circle fill="#C0392B" cx="306" cy="306" r="306"/>
</g>
<g opacity="0.2">
	<path fill="#231F20" d="M609.2,349.6L503.5,243.9l-38,8.3l-141-140.9l-49.1,167.8L106.6,268l117.8,117.8L178,479.4L310.6,612
		C462.7,609.2,587.9,496.1,609.2,349.6z"/>
</g>
<g>
	<g>
		<path fill="#FABB00" d="M506.3,249.4c-2.8-9.3-10.2-14.8-20.4-17.6L377.4,217l-49.1-98.3c-3.7-8.3-13-13.9-23.2-13.9
			c-10.2,0-18.5,5.6-23.2,13.9L232.7,217l-108.4,14.8c-9.3,0.9-17.6,7.4-20.4,17.6c-2.8,10.2-0.9,19.5,6.5,26l78.8,76L170.6,459
			c-1.9,9.3,1.9,19.5,9.3,25c4.6,2.8,9.3,4.6,13.9,4.6c3.7,0,7.4-0.9,11.1-2.8l97.4-51l96.4,51c3.7,1.9,7.4,2.8,11.1,2.8
			c4.6,0,10.2-1.9,13.9-4.6c7.4-5.6,11.1-14.8,9.3-25l-17.6-108.5l78.8-76C506.3,268.9,509.1,257.8,506.3,249.4z"/>
	</g>
</g>
</svg>
