<?xml version="1.0" encoding="utf-8"?>
<!-- Generator: Adobe Illustrator 18.1.1, SVG Export Plug-In . SVG Version: 6.00 Build 0)  -->
<svg version="1.1" id="Layer_1" xmlns="http://www.w3.org/2000/svg" xmlns:xlink="http://www.w3.org/1999/xlink" x="0px" y="0px"
    viewBox="0 0 612 612" enable-background="new 0 0 612 612" xml:space="preserve">
<circle fill="#FF5C5C" cx="306" cy="306" r="306"/>
<g opacity="0.2">
   <path fill="#231F20" d="M612,306c0-20.5-2-40.5-5.9-59.9L486.2,126.2L126.3,486.5l119.6,119.6c19.4,3.9,39.5,5.9,60.1,5.9
      C475,612,612,475,612,306z"/>
</g>
<path fill="#E0E0D1" d="M497.2,459c0,21.1-17.1,38.2-38.2,38.2H153c-21.1,0-38.2-17.1-38.2-38.2V191.2c0-21.1,17.1-38.2,38.2-38.2
   h306c21.1,0,38.2,17.1,38.2,38.2V459z"/>
<g opacity="0.2">
   <path fill="#231F20" d="M497.2,439.9c0,21.1-17.1,38.2-38.2,38.2H153c-21.1,0-38.2-17.1-38.2-38.2V172.1
      c0-21.1,17.1-38.2,38.2-38.2h306c21.1,0,38.2,17.1,38.2,38.2V439.9z"/>
</g>
<path fill="#E0E0D1" d="M497.2,420.8c0,21.1-17.1,38.2-38.2,38.2H153c-21.1,0-38.2-17.1-38.2-38.2V153c0-21.1,17.1-38.2,38.2-38.2
   h306c21.1,0,38.2,17.1,38.2,38.2V420.8z"/>
<rect x="153" y="229.5" fill="#4F5D73" width="114.8" height="114.8"/>
<rect x="344.2" y="258.2" fill="#4F5D73" width="114.8" height="9.6"/>
<rect x="344.2" y="239.1" fill="#4F5D73" width="114.8" height="9.6"/>
<rect x="306" y="229.5" fill="#4F5D73" width="28.7" height="38.2"/>
<rect x="306" y="286.9" fill="#4F5D73" width="153" height="9.6"/>
<rect x="306" y="306" fill="#4F5D73" width="153" height="9.6"/>
<rect x="306" y="325.1" fill="#4F5D73" width="153" height="9.6"/>
<rect x="306" y="344.2" fill="#4F5D73" width="153" height="9.6"/>
<rect x="343.1" y="372.9" fill="#4F5D73" width="115.9" height="9.6"/>
<rect x="153" y="372.9" fill="#4F5D73" width="114.8" height="9.6"/>
<rect x="153" y="392.1" fill="#4F5D73" width="114.8" height="9.6"/>
<rect x="153" y="411.2" fill="#4F5D73" width="114.8" height="9.6"/>
<rect x="153" y="430.3" fill="#4F5D73" width="114.8" height="9.6"/>
<rect x="306" y="392.1" fill="#4F5D73" width="153" height="9.6"/>
<rect x="306" y="411.2" fill="#4F5D73" width="153" height="9.6"/>
<rect x="306" y="430.3" fill="#4F5D73" width="153" height="9.6"/>
<circle fill="#E0E0D1" cx="229.5" cy="267.8" r="19.1"/>
<rect x="153" y="153" fill="#4F5D73" width="306" height="38.2"/>
<path fill="#E0E0D1" d="M258.2,334.7v-23.1l-7.5-7.5c-4.7-4.6-12.2-4.6-16.9,0l-8.1,8l-18.4-18.3c-9.3-9.3-24.5-9.3-33.8,0
   l-10.9,10.9v30H258.2z"/>
</svg>
