<?xml version="1.0" encoding="utf-8"?>
<!-- Generator: Adobe Illustrator 18.1.1, SVG Export Plug-In . SVG Version: 6.00 Build 0)  -->
<svg version="1.1" id="Calque_1" xmlns="http://www.w3.org/2000/svg" xmlns:xlink="http://www.w3.org/1999/xlink" x="0px" y="0px"
	 viewBox="0 0 612 612" enable-background="new 0 0 612 612" xml:space="preserve">
<path fill="#E74C3C" d="M410,410c28.8-28.8,42.8-66.1,42.8-104s-14.1-75.3-42.8-104L522.6,89.4c60,60,89.4,138.3,89.4,216.6
	s-29.4,156.7-89.4,216.6c-60,60-138.3,89.4-216.6,89.4h-0.6h0.6V452.9C343.9,452.9,381.3,438.8,410,410z"/>
<path fill-opacity="0.15" d="M306,612c173.8,0,306-140.1,306-306c0-101.6-48.3-175.6-89.4-216.6l-34.9,34.9
	C534.3,170.7,563,235,563,306c0,142-115.1,257-257,257V612z"/>
<path fill="#FFFFFF" fill-opacity="0.15" d="M306.6,452.9v49c108.3,0,195.8-87.5,195.8-195.8c0-53.9-22-102.8-57.5-138.3L410.7,202
	c28.8,28.8,42.8,66.1,42.8,104s-14.1,75.3-42.8,104C381.9,438.8,343.9,452.9,306.6,452.9z"/>
<path fill="#EFC22D" d="M306,612L306,612c20.2,0,36.7-35.5,36.7-79.6s-16.5-79.6-36.7-79.6l0,0l0,0l0,0l0,0l-79.6,79.6L306,612z"/>
<path fill="#2D3E4F" d="M226.4,532.4l25.7,25.7c6.7-6.7,11-15.9,11-25.7c0-10.4-4.3-19.6-11-25.7L226.4,532.4z"/>
<path fill="#3498DB" d="M202,202c-28.8,28.8-42.8,66.1-42.8,104s14.1,75.3,42.8,104L89.4,522.6C29.4,462.7,0,384.3,0,306
	S29.4,149.3,89.4,89.4S227.7,0,306,0h0.6H306v159.1C268.7,159.1,230.7,173.2,202,202z"/>
<path fill-opacity="0.1" d="M306,159.1v-49c-108.3,0-195.8,87.5-195.8,195.8c0,53.9,22,102.8,57.5,138.3L202,410
	c-28.8-28.8-42.8-66.1-42.8-104s14.1-75.3,42.8-104C230.7,173.2,268.7,159.1,306,159.1z"/>
<path fill="#FFFFFF" fill-opacity="0.15" d="M306,0C132.2,0,0,140.1,0,306c0,101.6,48.3,175.6,89.4,216.6l34.9-34.9
	C77.7,441.3,49,377,49,306C49,164,164,49,306,49V0z"/>
<path fill="#EFC22D" d="M306,0L306,0c-20.2,0-36.7,35.5-36.7,79.6s16.5,79.6,36.7,79.6l0,0l0,0l0,0l0,0l79.6-79.6L306,0z"/>
<path fill="#2D3E4F" d="M385.6,79.6l-25.7-25.7c-6.7,6.7-11,15.9-11,25.7c0,10.4,4.3,19.6,11,25.7L385.6,79.6z"/>
</svg>
