<?xml version="1.0" encoding="utf-8"?>
<!-- Generator: Adobe Illustrator 18.1.1, SVG Export Plug-In . SVG Version: 6.00 Build 0)  -->
<svg version="1.1" id="Calque_1" xmlns="http://www.w3.org/2000/svg" xmlns:xlink="http://www.w3.org/1999/xlink" x="0px" y="0px"
	 viewBox="0 0 612 612" enable-background="new 0 0 612 612" xml:space="preserve">
<circle fill="#4B77BE" cx="306" cy="306" r="306"/>
<g opacity="0.2">
	<path fill="#231F20" d="M612,306c0-39.6-7.5-77.5-21.2-112.2L491,94l-58-12l-260,67l-62,23l-11,60l19.3,63.3l71.5,71.5L114,391
		l13.8,117.2l91.2,91.2c27.6,8.2,56.8,12.6,87.1,12.6C475,612,612,475,612,306z"/>
</g>
<path fill="#E0E0D1" d="M447.9,238.7c4.8,5.6,8.7,10,11.7,14.3c70.3,92,45.6,193.1,41.2,205.7c-3.5,10.4-12.2,16.5-23,20
	c-13.5,3.9-198.4,55.6-206.6,56.9c0.9-6.5,13-74.2,2.2-130.6c-8.2-43.8-42.5-84.2-55.6-99.8c-8.7,3-49.5,15.2-74.2,6.1
	c-17.4-6.5-29.5-20.8-39.1-36.5c-13.9-23.4-16.5-49-13.5-75.1c2.6-19.5,20.4-49,50.3-57.3c11.3-3,231.8-66.8,261.7-75.5
	c30.4-8.7,45.1-8.7,65.5,5.2c43.4,29.1,44.7,86.8,43.4,99.4c-2.6,23-13.5,42.5-33,55.6C471.4,232.2,460.5,234.4,447.9,238.7z
	 M465.3,113.3c-8.7-13.5-23-22.6-41.2-16.9c-8.2,2.6-248.3,70.7-266.1,76.8c-17.4,5.6-49.9,34.3-24.3,83.3
	c7.8,15.2,25.6,31.3,43.8,27.8c10-1.7,278.7-81.6,284.3-86.4C487.4,178.4,474,126.3,465.3,113.3z"/>
<path fill="#E0E0D1" d="M237.9,511.7c-22.6,9.5-51.2,19.1-72.9,15.6c-18.2-3-33.4-13.5-44.7-28.2c-20.4-26-29.5-54.3-23-88.5
	c5.2-26.9,19.1-42.5,43.4-55.1c6.5-3.5,50.8-16.1,60.3-18.2c9.1,6.9,16.5,15.6,21.7,28.2c-10.4,3.5-59.9,15.2-74.2,23.4
	c-14.8,8.2-24.7,27.3-22.1,44.3c3.5,22.1,11.3,43.8,32.1,56c21.3,12.2,66.8-7.8,81.6-11.7C243.1,486.6,243.5,498.3,237.9,511.7z"/>
<path fill="#E0E0D1" d="M160.6,407.6c10-3.9,23.9,9.5,29.1,23.4c4.8,12.6,6.5,35.6-9.1,42.1c-13.5,5.6-27.8-13-31.3-28.2
	C144.5,425.4,148,412.8,160.6,407.6z"/>
<path fill="#E0E0D1" d="M160.6,195.3c10-3.9,23.9,9.5,29.1,23.4c4.8,12.6,6.5,35.6-9.1,42.1c-13.5,5.6-27.8-13-31.3-28.2
	C144.5,213.1,148,200.5,160.6,195.3z"/>
</svg>
