<?xml version="1.0" encoding="utf-8"?>
<!-- Generator: Adobe Illustrator 18.1.1, SVG Export Plug-In . SVG Version: 6.00 Build 0)  -->
<svg version="1.1" id="Calque_1" xmlns="http://www.w3.org/2000/svg" xmlns:xlink="http://www.w3.org/1999/xlink" x="0px" y="0px"
	 viewBox="0 0 612 612" enable-background="new 0 0 612 612" xml:space="preserve">
<circle fill="#3F85F4" cx="306" cy="306" r="306"/>
<path opacity="0.2" fill="#231F20" enable-background="new    " d="M587.4,426.3L413.2,252l-72.8-25l-92.7,13.3L188,324.5
	l24.1,119.9l160.4,160.4C469.5,583.3,549.2,515.7,587.4,426.3z"/>
<path id="path4429" fill="#FFFFFF" d="M248.6,77.7c-64.1,0-98.8,40.6-98.8,85.9c0,34.5,24.7,73.4,75.7,73.4h12.9
	c0,0-3.5,8.5-3.5,16.8c0,12.2,4.4,19,13.6,29.5c-87.7,5.3-123,40.7-123,78.7c0,33.3,31.9,66.1,98.9,66.1c79.3,0,120.4-44,120.4-87.3
	c0-30.5-15.2-47.2-53.6-76c-11.3-8.8-13.5-14.4-13.5-21c0-9.4,5.6-15.7,7.7-18c3.6-3.8,9.9-8.2,12.3-10.3
	c12.9-10.9,31.2-27.1,31.2-59.5c0-22.2-9.2-41.3-30.2-59.1h25.7l19.3-19.3L248.6,77.7L248.6,77.7z M230.9,92.1
	c11.6,0,21.3,4.1,31.6,12.6c11.4,10.3,29.5,37.9,29.5,72c0,36.8-28.6,46.9-44.1,46.9c-7.6,0-16.6-2.1-24.3-7.4
	c-17.1-11.1-34-40.5-34-75.6C189.6,109,208.5,92.1,230.9,92.1z M256.3,297.3c4.9,0,8.4,0.4,8.4,0.4s11.5,8.2,19.6,14.4
	c18.8,14.8,30.5,26.2,30.5,46.4c0,27.8-25.8,49.6-67.5,49.6c-45.8,0-80.8-21.3-80.8-56.1C166.5,323,190.4,298.2,256.3,297.3
	L256.3,297.3z"/>
<path fill="#4F5D73" d="M452.4,508.4c-4.9,0-9.9-1.9-13.7-5.7l-41.1-41.1c-7.5-7.5-7.5-19.8,0-27.3s19.8-7.5,27.3,0l41.1,41.1
	c7.5,7.5,7.5,19.8,0,27.3C462.3,506.5,457.4,508.4,452.4,508.4z"/>
<path fill="#4F5D73" d="M313.3,240.7c59.7,0,108.2,48.4,108.2,108.2S373.1,457,313.3,457s-108.2-48.4-108.2-108.1
	S253.6,240.7,313.3,240.7 M313.3,209.8c-76.7,0-139.1,62.4-139.1,139.1S236.6,488,313.3,488s139.1-62.4,139.1-139.1
	S390,209.8,313.3,209.8L313.3,209.8z"/>
</svg>
