<?xml version="1.0" encoding="utf-8"?>
<!-- Generator: Adobe Illustrator 18.1.1, SVG Export Plug-In . SVG Version: 6.00 Build 0)  -->
<svg version="1.1" id="Layer_1" xmlns="http://www.w3.org/2000/svg" xmlns:xlink="http://www.w3.org/1999/xlink" x="0px" y="0px"
	 viewBox="0 0 612 612" enable-background="new 0 0 612 612" xml:space="preserve">
<circle fill="#22A7F0" cx="306" cy="306" r="306"/>
<g opacity="0.2">
	<path fill="#231F20" d="M610.5,336.1L499.8,225.3l-128,4.6l79.7,79.7l-39.8-3.6L218.8,113.1L86.2,441.4l165.9,165.9
		c17.5,3.1,35.5,4.7,53.9,4.7C464.9,612,595.4,490.9,610.5,336.1z"/>
</g>
<path fill="#FFFFFF" d="M338.6,425.3l-114.8-306c-2.1-5.6-7.5-9.3-13.4-9.3c-6,0-11.3,3.7-13.4,9.3l-114.8,306
	c-2.8,7.4,1,15.7,8.4,18.5c7.4,2.8,15.7-1,18.5-8.4L154,315.6h112.8l44.9,119.8c2.2,5.8,7.6,9.3,13.4,9.3c1.7,0,3.4-0.3,5-0.9
	C337.6,441,341.4,432.7,338.6,425.3z M164.7,286.9l45.6-121.7L256,286.9H164.7z"/>
<path fill="#FFFFFF" d="M506.8,444.7h-76.5c-44.8,0-81.3-36.5-81.3-81.3c0-43.6,34.9-76.5,81.3-76.5h62.2v-9.6
	c0-15.2-4.6-26.3-14.2-33.9c-24.2-19.4-75.1-13.4-92.6-9.5c-7.8,1.7-15.4-3.1-17.1-10.9c-1.7-7.7,3.1-15.4,10.8-17.1
	c3.1-0.7,76.9-16.9,116.9,15c16.6,13.2,25,32.2,25,56.4v153C521.2,438.3,514.8,444.7,506.8,444.7z M430.3,315.6
	c-30.5,0-52.6,20.1-52.6,47.8c0,29,23.6,52.6,52.6,52.6h62.2V315.6H430.3z"/>
</svg>
