<?xml version="1.0" encoding="utf-8"?>
<!-- Generator: Adobe Illustrator 18.1.1, SVG Export Plug-In . SVG Version: 6.00 Build 0)  -->
<svg version="1.1" id="Layer_1" xmlns="http://www.w3.org/2000/svg" xmlns:xlink="http://www.w3.org/1999/xlink" x="0px" y="0px"
	 viewBox="0 0 612 612" enable-background="new 0 0 612 612" xml:space="preserve">
<circle fill="#3A539B" cx="306" cy="306" r="306"/>
<g opacity="0.2">
	<g>
		<path fill="#231F20" d="M612,306c0-20.5-2-40.5-5.9-59.9L486,126L123.3,464.7l145,145c12.3,1.5,24.9,2.3,37.6,2.3
			C475,612,612,475,612,306z"/>
	</g>
</g>
<path fill="#FFFFFF" d="M114.8,205.6v234.3c0,21.1,17.1,38.2,38.2,38.2h306c21.1,0,38.2-17.1,38.2-38.2V205.6H114.8z"/>
<g opacity="0.2">
	<path fill="#231F20" d="M497.2,172.1c0-21.1-17.1-38.2-38.2-38.2H153c-21.1,0-38.2,17.1-38.2,38.2v57.4h382.5L497.2,172.1
		L497.2,172.1z"/>
</g>
<path fill="#E0E0D1" d="M497.2,153c0-21.1-17.1-38.2-38.2-38.2H153c-21.1,0-38.2,17.1-38.2,38.2v57.4h382.5L497.2,153L497.2,153z"/>
<circle fill="#E0995E" cx="219.9" cy="162.6" r="19.1"/>
<circle fill="#76C2AF" cx="277.3" cy="162.6" r="19.1"/>
<circle fill="#C75C5C" cx="162.6" cy="162.6" r="19.1"/>
<rect x="153" y="267.8" fill="#4F5D73" width="114.8" height="172.1"/>
<rect x="306" y="267.8" fill="#E0E0D1" width="153" height="19.1"/>
<rect x="306" y="306" fill="#E0E0D1" width="153" height="19.1"/>
<rect x="306" y="344.2" fill="#E0E0D1" width="153" height="19.1"/>
<rect x="306" y="382.5" fill="#E0E0D1" width="153" height="19.1"/>
<rect x="306" y="420.8" fill="#E0E0D1" width="153" height="19.1"/>
</svg>
