<?xml version="1.0" encoding="utf-8"?>
<!-- Generator: Adobe Illustrator 18.1.1, SVG Export Plug-In . SVG Version: 6.00 Build 0)  -->
<svg version="1.1" id="Calque_1" xmlns="http://www.w3.org/2000/svg" xmlns:xlink="http://www.w3.org/1999/xlink" x="0px" y="0px"
	 viewBox="0 0 454 66" enable-background="new 0 0 454 66" xml:space="preserve">
<g>
	<path fill="#FFFFFF" d="M17.6,7.4c-0.2-0.2-0.6-0.4-1.4-1c-0.6-0.6-1.2-1-1.4-1.2c-0.4-0.4-0.8-0.8-1.4-1.4c-0.4-0.4-0.8-1-1-1.6
		C12,2,11.6,2,11.4,1.8c-0.4-0.2-0.6-0.2-0.8-0.4C10.4,1.2,10.2,1,9.8,0.6C9.4,0.4,9.2,0.2,9,0H7.2c0,0.6-0.4,1-1,1.8
		c-0.6,0.6-1,1.2-1,1.6c0.2,0.8,0,2.2-0.6,4c0,0.4,0.2,0.6,0.2,0.8S5,8.8,5,9s0,0.6,0,0.8c0,0.4,0,0.6,0,0.8s0,0.6,0,1.2
		c0,0.6,0,1,0,1.4c1.2,2.6,2,5.4,2,8.2S6.6,27.2,5.8,30S4,35.6,3.2,38.2c-0.8,2.8-1.8,5.6-2.8,9c-1,3.2-1.6,6.2-1.8,9
		c0.6,0,1,0.4,1,1c-0.4,0.6-0.4,1.2,0,2s0.8,1.6,1.6,2.4c0.8,1,1.4,1.6,1.4,1.8c0.2,0,0.6,0,1.4-0.2S5.6,63,6.4,63s1.4,0.2,1.8,0.6
		c1.2-1,2.8-2.6,4.6-4.8c-0.4-1.4,0-3,0.8-4.4c0.2-1.6,0.6-3,1.2-3.8c0.4-1.4,1.2-3.6,2-6.4c1-3,1.6-5.2,2.2-6.8s0.8-3.6,1-6.4
		c0.2-2.6,0.2-5.2,0.2-7.6l-0.4-8.6C19.6,12,18.8,9.6,17.6,7.4z M131.2,41.4c0-0.8-0.4-2.2-1.2-4.2s-1-3.8-0.8-5
		c-1.4-2.6-2.8-5.6-4-8.6s-2.4-6-4-8.6c0.2-0.4,0.2-0.8,0.2-1.4c0-0.4-0.2-0.6-0.6-0.6s-0.4-0.4-0.4-0.8c0.2-0.2,0.2-0.2,0.2-0.4
		c0,0,0-0.2-0.2-0.4c0-0.2,0-0.4,0-0.6c-0.2-0.6-0.4-1.2-0.8-1.8s-0.6-1.4-0.8-2c-0.2,0-0.4,0-0.4,0c-0.2,0.2-0.4,0.2-0.4,0.2
		c-0.2-0.6-0.4-1-0.8-1.2s-1-0.4-1.4-0.2c-0.6,0-1-0.2-1.4-0.4c-0.4-0.2-0.8-0.8-0.8-1.4c-0.8-0.8-1.4-1.2-2.2-1.4
		c-0.8-0.2-3,0.2-6.6,0.8L104,4.2c-0.4,0.6-1.2,1.4-2.4,2v1c-0.6,0.2-1.4,0.8-2.4,1.6c-1,1-1.8,1.4-2.4,1.6C96.6,11.2,96,12,95,12.8
		s-1.6,1.6-2,2.4c-0.4,0.2-0.8,0.6-1.4,1.4s-1,1-1.6,0.8c-0.2,0.6-0.8,1.4-1.8,2.6c-2.2,2.8-3.8,5.2-4.8,6.6c-1,1.6-2.2,3.8-3.8,6.8
		c-1.4,3-2.4,5.8-2.8,9c0,0.2,0,0.2,0,0.4c-2.4,0-5,0.6-8,1.8c-3.4-0.2-7.2,0.4-11.2,2c-1.2,0.2-2.8,0.4-4.6,0.6
		c-1.8,0.2-3.2,0.4-4.2,0.6c-1,0.2-2.4,0-4-0.4c0.8-0.6,1.4-1.2,2-2c0.4-0.6,1-1.4,1.8-2c0.6-0.6,1.8-1.4,3.4-2.4
		c1.6-1,2.8-1.8,3.4-2.4c0.2-0.2,0.4-0.4,0.4-0.8C56,37.4,56,37,56.2,37c1-1,2.2-1.8,3.4-2.4c1.2-0.6,2.4-1.4,3.6-2.4
		c2.2-1.8,4.2-3.6,6.2-5.6S73,22,74.2,19c-0.2-2.2-1.2-4.6-2.6-7c-2.8-1.2-4.6-3-5-6c-2.2-1.6-4.8-3-8-3.8S52.2,1,49,1
		c-3.4,0-6.6,0.2-9.6,0.6s-6,1-8.8,1.8c-0.4,0.4-0.6,0.8-0.8,1.2c-0.2,0.4-0.6,1-0.8,1.6c-0.6,0.2-1,0.6-1,1c0,0.4,0.2,1.4,0.2,2.8
		s0.2,2.8,0.4,4c0.2,1.2,0.8,2.2,1.6,3c1.2,0.4,2.4,0.6,3.6,0.6c1.2,0,2.2,0.4,3.2,0.8c0.6-0.2,2-0.4,4-1s3.8-1,5.4-1.2
		c1.4-0.2,3.2-0.4,5.2-0.4s3.8,0.2,5.4,0.8c-1.2,1.2-2.6,2.4-4.4,3.6c-1.6,1-3,2.4-4.2,3.8c-3.8,2.4-7.2,5.2-10.2,8.4
		s-6.4,7-9.8,11.4c-0.6,1.6-1,3.6-1.2,5.8s0,4.4,0.6,6.6c0.6,2.2,1.6,4,3.2,5.4c2.8,1.2,6.6,1.8,11,2c5.6-0.6,11.4-1.6,17-3
		c6-1.2,11.6-2.2,16.8-3c0.2-0.4,0.4-0.6,0.8-0.8s0.6-0.4,0.8-0.8c0.4,0.2,1,0.4,1.6,0.4c1.2,2.2,2.8,4.2,4.8,5.8
		c3,2.4,6.6,3.4,10.6,2.8c2.4,0.6,4.4,0.8,6.2,0.4c1.8-0.2,3.6-0.8,5.4-1.6c1.4,0.2,3,0,5.2-0.8s4-1.6,5.6-2.8
		c0.2,0,0.6-0.2,1.2-0.2c0.6-0.2,1-0.2,1.4-0.4c0.4,0,0.6-0.2,1-0.4s0.8-0.4,1-0.6c3.8-3.8,6-5.8,6.4-5.4c1.4-0.8,2.4-2.4,3-4.8
		C131.2,45.8,131.4,43.6,131.2,41.4z M117,40.4c-0.4,0.6-0.6,1.2-0.8,1.8c-1.4,1-3.2,2.2-5.2,3.6c-1.6,1.2-3.4,1.8-5.2,2
		c-0.2,0-0.4,0-0.4,0.2s-0.2,0.2-0.2,0.6c-0.6,0-2.2,0.2-4.4,0.8c-2.4,0.4-4.4,0.6-6,0.6c-1.6-0.2-3-0.8-4.2-2c0-2,0.4-3.8,1-5.4
		c0.6-1.6,1.4-3.2,2.4-5s1.6-3.2,2.2-4.4c0.2-0.2,0.4-0.2,0.6-0.2s0.2,0,0.4-0.2c0.6-1,1.2-2,2-3s1.4-1.8,2-2.4s1.4-1.4,2.6-2.6
		s1.8-1.8,2.4-2.2c0.6,0.6,1.4,1,2,1c0.4,0,0.6,0,1-0.2c0.2-0.2,0.4-0.6,0.6-1.2c0.2,0.2,0.4,0.4,0.6,0.2c0.2,0,0.4-0.2,0.6-0.4
		c0.2-0.2,0.2-0.4,0.4-0.6c1,2,2,4.4,3,7s2,4.8,3,7c0,0.6,0,1.2,0,1.6c0,0.2,0.2,0.6,0.4,1.4C117.6,39.2,117.4,39.8,117,40.4z"/>
</g>
<path fill="#2BA6CB" d="M144.2,64c2.2,0,4-0.8,5.4-2.2s2.2-3.2,2.2-5.4s-0.8-4-2.2-5.4s-3.2-2.2-5.4-2.2s-4,0.8-5.4,2.2
	s-2.2,3.2-2.2,5.4s0.8,4,2.2,5.4S142,64,144.2,64z"/>
<path fill="#2BA6CB" d="M178.2,63.2c11.4,0,20-2.8,25.6-8.2s8.4-12.8,8.4-22.4c0-9.4-2.8-16.8-8.6-22s-14-7.8-24.8-7.8h-21.4v60.4
	H178.2z M171,14.6h7.6c6.8,0,12,1.6,15.2,4.8c3.4,3.2,5,7.8,5,13.8s-1.6,10.6-5,13.6c-3.4,3.2-8,4.6-14.2,4.6H171V14.6z"/>
<path fill="#2BA6CB" d="M262,63.2V51.4h-31V38.8h27V27.4h-27V14.8h30v-12h-43.6v60.4H262z"/>
<path fill="#2BA6CB" d="M289,64c6.6,0,12-1.6,16-5s6-7.8,6-13.2s-1.6-9.6-4.8-12.4c-3.2-2.8-7.6-5-13.4-6.4s-9.4-2.6-11-3.6
	s-2.4-2.4-2.4-4.2c0-1.8,0.6-3.2,2-4.2c1.2-1,3-1.6,5.4-1.6c5.6,0,11,2,16.2,6l6.8-9.8c-3-2.6-6.6-4.6-10.6-5.8s-8-2-12.2-2
	c-6.2,0-11.4,1.6-15.4,4.6c-4.2,3.2-6.2,7.6-6.2,13.2s1.6,10,4.8,12.6c3.2,2.6,8.4,4.8,15.4,6.6c4.4,1,7.4,2.2,9,3.2
	s2.2,2.6,2.2,4.4c0,1.8-0.8,3.2-2.2,4.4c-1.4,1-3.4,1.6-5.8,1.6c-5.6,0-11.6-2.8-18-8.6l-8,9.8C270.8,60.4,279.4,64,289,64L289,64z"
	/>
<path fill="#2BA6CB" d="M329.6,63.2V2.8H316v60.4H329.6z"/>
<path fill="#2BA6CB" d="M366,64L366,64c10.6,0,18.8-3.2,24.8-9.8V32.4h-13.6V49c-3.2,1.8-7,2.8-11.6,2.8s-8.6-1.8-12-5.2
	s-5-8.2-5-14s1.8-10.4,5.2-14c3.6-3.6,7.8-5.2,13-5.2c2.6,0,5.2,0.4,7.4,1.4c2.2,0.8,4.8,2.6,7.4,5l7-10c-6.4-5.4-13.8-8.2-22.6-8.2
	c-8.6,0-16,3-22.2,8.8s-9.2,13.4-9.2,22.4s3,16.6,9,22.4C349.6,61,357,64,366,64L366,64z"/>
<path fill="#2BA6CB" d="M409.8,63.2V25.4l28.8,37.8h13.6V2.8h-13.6v38.8L409,2.8h-12.6v60.4H409.8z"/>
</svg>
