<?xml version="1.0" encoding="utf-8"?>
<!-- Generator: Adobe Illustrator 18.1.1, SVG Export Plug-In . SVG Version: 6.00 Build 0)  -->
<svg version="1.1" id="Calque_1" xmlns="http://www.w3.org/2000/svg" xmlns:xlink="http://www.w3.org/1999/xlink" x="0px" y="0px"
	 viewBox="0 0 454 66" enable-background="new 0 0 454 66" xml:space="preserve">
<g>
	<path fill="#FFFFFF" d="M18.4,7.6C18.1,7.4,17.7,7,17,6.5c-0.7-0.5-1.2-0.9-1.5-1.2S14.7,4.6,14.2,4c-0.5-0.5-0.9-1.1-1.1-1.7
		c-0.3-0.1-0.7-0.2-1-0.3c-0.3-0.2-0.6-0.3-0.8-0.5s-0.5-0.4-0.8-0.7c-0.4-0.3-0.6-0.5-0.8-0.7H7.8c0,0.5-0.3,1.1-0.9,1.8
		C6.3,2.5,6,3.1,5.9,3.6c0.2,0.8,0.1,2.2-0.6,4C5.4,8,5.5,8.2,5.5,8.5C5.6,8.8,5.6,9,5.7,9.2c0,0.2,0.1,0.5,0.1,0.9s0,0.7,0,0.9
		s0,0.6,0,1.2c0,0.6,0,1,0,1.4c1.3,2.6,1.9,5.4,2,8.3s-0.3,5.7-1.2,8.5S4.9,35.9,4,38.7s-1.8,5.7-2.8,9s-1.6,6.3-1.8,9
		c0.7,0,1,0.3,1,0.9c-0.3,0.6-0.4,1.3,0,2C0.9,60.2,1.5,61,2.3,62c0.8,0.9,1.3,1.5,1.5,1.8c0.2,0.1,0.7,0,1.5-0.1s1.6-0.2,2.4-0.1
		c0.8,0,1.4,0.2,1.7,0.6c1.2-0.9,2.7-2.6,4.6-4.9c-0.3-1.4-0.1-2.9,0.8-4.4c0.3-1.7,0.7-2.9,1.2-3.8c0.5-1.4,1.2-3.6,2.1-6.5
		s1.7-5.2,2.2-6.7c0.5-1.6,0.9-3.7,1-6.3c0.2-2.6,0.2-5.2,0.2-7.6l-0.9-9C20.3,12.3,19.5,9.8,18.4,7.6z M131.8,41.6
		c-0.1-0.7-0.5-2.1-1.2-4.2c-0.7-2.1-1-3.8-0.9-5.1c-1.5-2.7-2.8-5.5-3.9-8.6c-1.2-3.1-2.5-6-3.9-8.6c0.2-0.3,0.3-0.8,0.3-1.4
		c-0.1-0.4-0.2-0.6-0.5-0.7c-0.3-0.1-0.5-0.3-0.5-0.8c0.2-0.1,0.3-0.3,0.3-0.3c0-0.1,0-0.2-0.1-0.5c-0.1-0.2,0-0.4,0-0.6
		c-0.1-0.5-0.4-1.1-0.7-1.8c-0.3-0.6-0.6-1.3-0.7-2c-0.2-0.1-0.3,0-0.5,0.1s-0.3,0.2-0.4,0.2c-0.1-0.6-0.4-0.9-0.9-1.2
		c-0.5-0.2-1-0.3-1.5-0.3s-1-0.1-1.5-0.4s-0.7-0.7-0.8-1.4c-0.7-0.8-1.5-1.2-2.3-1.3s-3,0.2-6.7,0.8l-0.6,0.6
		c-0.5,0.7-1.3,1.3-2.4,2v1.1c-0.6,0.2-1.4,0.8-2.3,1.7s-1.8,1.5-2.5,1.6c-0.3,0.6-0.9,1.4-1.9,2.3c-1,0.9-1.6,1.7-1.9,2.3
		c-0.3,0.1-0.7,0.6-1.3,1.4c-0.6,0.8-1.1,1.1-1.6,0.8c-0.4,0.6-1,1.4-1.9,2.5c-2.2,2.9-3.8,5.1-4.8,6.7c-1,1.6-2.3,3.8-3.7,6.7
		c-1.5,2.9-2.4,5.9-2.9,8.9c0,0.1,0,0.2,0,0.3c-2.3,0-5,0.5-8.1,1.8c-3.3-0.2-7.1,0.5-11.3,1.9c-1.2,0.1-2.7,0.4-4.5,0.6
		c-1.8,0.3-3.2,0.5-4.2,0.6c-1,0.2-2.3,0-4-0.4c0.8-0.5,1.4-1.2,1.9-2c0.4-0.7,1-1.3,1.8-2c0.7-0.6,1.8-1.4,3.4-2.4
		c1.6-1,2.7-1.8,3.4-2.5c0.2-0.1,0.3-0.4,0.4-0.8c0.1-0.4,0.3-0.7,0.4-0.9c1-1,2.2-1.8,3.4-2.4c1.3-0.7,2.5-1.5,3.6-2.5
		c2.1-1.8,4.2-3.7,6.2-5.7c2.1-2,3.6-4.6,4.8-7.6c-0.3-2.2-1.1-4.5-2.5-7.1c-2.9-1.1-4.6-3.1-5.1-5.9c-2.2-1.7-4.9-2.9-8-3.8
		c-3.1-0.8-6.3-1.3-9.7-1.2c-3.3,0-6.5,0.2-9.6,0.7c-3,0.4-6,1-8.9,1.8c-0.3,0.4-0.6,0.8-0.9,1.2c-0.3,0.5-0.6,1-0.9,1.6
		s-0.6,1.1-0.8,1.4c0.2,0.5,0.3,1.5,0.3,2.9s0.1,2.8,0.4,4c0.2,1.3,0.8,2.3,1.6,3c1.3,0.4,2.5,0.6,3.6,0.7c1.2,0.1,2.3,0.3,3.2,0.8
		c0.6-0.1,2-0.4,4-0.9c2.1-0.5,3.8-0.9,5.3-1.2c1.5-0.3,3.2-0.4,5.3-0.4s3.9,0.3,5.4,0.9c-1.2,1.2-2.6,2.4-4.3,3.5
		c-1.6,1.1-3,2.3-4.1,3.8c-3.7,2.4-7.1,5.2-10.2,8.3c-3.1,3.2-6.4,7-9.9,11.4c-0.6,1.7-1.1,3.6-1.2,5.8c-0.2,2.2,0,4.4,0.7,6.6
		c0.6,2.3,1.7,4,3.1,5.3c2.9,1.1,6.5,1.8,11,1.9c5.6-0.7,11.3-1.7,17.1-3c5.9-1.2,11.5-2.2,16.7-2.9c0.1-0.4,0.4-0.7,0.7-0.8
		c0.3-0.1,0.6-0.4,0.7-0.9c0.5,0.3,1,0.4,1.5,0.4c1.3,2.3,2.9,4.2,4.8,5.8c3,2.5,6.5,3.4,10.7,2.8c2.4,0.6,4.4,0.7,6.1,0.5
		c1.7-0.3,3.5-0.8,5.4-1.6c1.4,0.2,3.1,0,5.2-0.8s4-1.7,5.5-2.7c0.3-0.1,0.7-0.2,1.2-0.3c0.6-0.1,1-0.3,1.3-0.3
		c0.3-0.1,0.7-0.2,1.1-0.4s0.8-0.4,1.1-0.6c3.9-3.9,6-5.7,6.4-5.5c1.3-0.9,2.3-2.5,3-4.8C131.9,46.1,132.1,43.8,131.8,41.6z
		 M117.7,40.5c-0.4,0.5-0.7,1.1-0.9,1.9c-1.5,1-3.2,2.1-5.2,3.5c-1.7,1.2-3.4,1.9-5.3,2.1c-0.2,0-0.3,0-0.4,0.1s-0.1,0.3-0.1,0.5
		c-0.6,0-2.1,0.3-4.5,0.8s-4.4,0.6-6,0.5c-1.7-0.1-3-0.8-4.1-1.9c0.1-2,0.4-3.8,1.1-5.4c0.7-1.6,1.5-3.3,2.5-5s1.7-3.2,2.1-4.5
		c0.2-0.1,0.4-0.2,0.5-0.1c0.1,0,0.3,0,0.4-0.1c0.6-1,1.3-1.9,2.1-2.9c0.8-1,1.5-1.8,2-2.4c0.6-0.6,1.4-1.4,2.5-2.6
		c1.1-1.1,1.9-1.9,2.3-2.3c0.6,0.6,1.3,0.9,2,1c0.4,0.1,0.7,0,0.9-0.3c0.2-0.3,0.4-0.7,0.6-1.2c0.2,0.3,0.4,0.4,0.7,0.3
		c0.2-0.1,0.4-0.2,0.5-0.4c0.1-0.2,0.3-0.4,0.3-0.6c1,2,2,4.3,3,7c0.9,2.6,1.9,4.9,3.1,7c0,0.6,0,1.2,0.1,1.6c0,0.1,0.2,0.6,0.4,1.4
		C118.2,39.3,118.1,40.1,117.7,40.5z"/>
</g>
<path fill="#2BA6CB" d="M144.8,64.1c2.1,0,4-0.7,5.4-2.2c1.5-1.5,2.2-3.3,2.2-5.4c0-2.1-0.7-3.9-2.2-5.4s-3.3-2.2-5.4-2.2
	c-2.1,0-4,0.7-5.4,2.2c-1.5,1.5-2.2,3.3-2.2,5.4c0,2.1,0.7,3.9,2.2,5.4C140.9,63.4,142.7,64.1,144.8,64.1z"/>
<path fill="#2BA6CB" d="M178.8,63.4c11.5,0,20.1-2.7,25.7-8.2c5.6-5.4,8.4-12.9,8.4-22.3s-2.9-16.8-8.6-22c-5.8-5.3-14-7.9-24.8-7.9
	h-21.3v60.4H178.8z M171.7,14.7h7.5c6.9,0,12,1.6,15.3,4.8s5,7.8,5,13.8s-1.7,10.5-5,13.6c-3.3,3.1-8.1,4.7-14.3,4.7h-8.5V14.7z"/>
<path fill="#2BA6CB" d="M262.7,63.4V51.6h-31V38.9h27.1V27.5h-27.1V15h30.1V3h-43.6v60.4H262.7z"/>
<path fill="#2BA6CB" d="M289.7,64.1c6.7,0,12-1.7,16.1-5s6.1-7.7,6.1-13.1s-1.6-9.5-4.8-12.4c-3.2-2.8-7.6-4.9-13.4-6.3
	c-5.7-1.4-9.4-2.6-11-3.7c-1.6-1-2.4-2.4-2.4-4.2c0-1.8,0.6-3.2,1.9-4.2c1.3-1.1,3.1-1.6,5.3-1.6c5.6,0,11,2,16.3,6l6.9-9.9
	c-3-2.5-6.5-4.5-10.6-5.9S292,1.7,288,1.7c-6.2,0-11.3,1.6-15.4,4.7s-6.2,7.5-6.2,13.3s1.6,9.9,4.9,12.6s8.4,4.9,15.4,6.5
	c4.4,1.1,7.4,2.2,8.9,3.2c1.5,1.1,2.3,2.5,2.3,4.3s-0.7,3.3-2.1,4.3c-1.4,1.1-3.4,1.6-5.8,1.6c-5.5,0-11.6-2.9-18.1-8.6l-8,9.8
	C271.6,60.6,280.2,64.1,289.7,64.1L289.7,64.1z"/>
<path fill="#2BA6CB" d="M330.4,63.4V3h-13.5v60.4H330.4z"/>
<path fill="#2BA6CB" d="M366.7,64.1c0.1,0,0.1,0,0.1,0c10.5,0,18.7-3.3,24.7-9.9V32.7H378v16.7c-3.1,1.8-7,2.7-11.7,2.7
	s-8.7-1.7-12.1-5.2s-5.1-8.1-5.1-13.9s1.8-10.4,5.3-14c3.5-3.5,7.8-5.3,13-5.3c2.6,0,5.1,0.4,7.4,1.3c2.3,0.9,4.8,2.5,7.5,4.9
	l7-10.1c-6.4-5.5-13.9-8.2-22.6-8.2s-16.1,2.9-22.2,8.8s-9.2,13.4-9.2,22.4c0,9.1,3,16.6,9.1,22.4C350.3,61.2,357.8,64.1,366.7,64.1
	L366.7,64.1z"/>
<path fill="#2BA6CB" d="M410.6,63.4V25.6l28.8,37.8h13.5V3h-13.5v38.9L409.7,3h-12.6v60.4H410.6z"/>
</svg>
